# xmcd CD database file
#
# Track frame offsets:
#	150
#	45064
#	69136
#	104236
#	145476
#	175404
#	209865
#	252223
#	278430
#	312215
#
# Disc length: 4704 seconds
#
# Revision: 1
# Processed by: cddbd v1.5.2PL0 Copyright (c) Steve Scherf et al.
# Submitted via: CDex 1.70beta2
#
DISCID=91125e0a
DTITLE=Bill Harris And Charlie Ventura - Jazz Roads CD397 - Bebop - Bebop Live Concerts Vol.8 (1947) 
DYEAR=1900
DGENRE=Jazz
TTITLE0=Bill Harris And Charlie Ventura - Characteristically B.H.
TTITLE1=Bill Harris And Charlie Ventura - Blue Champagne
TTITLE2=Bill Harris And Charlie Ventura - Mordido
TTITLE3=Bill Harris And Charlie Ventura - High On An Open Mike
TTITLE4=Bill Harris And Charlie Ventura - Body And Soul
TTITLE5=Bill Harris And Charlie Ventura - The Great Lie
TTITLE6=Bill Harris And Charlie Ventura - Eleven Sixty
TTITLE7=Bill Harris And Charlie Ventura - All Of Me
TTITLE8=Bill Harris And Charlie Ventura - The Man I Love
TTITLE9=Bill Harris And Charlie Ventura - Aces At The Deuces
EXTD=
EXTT0=
EXTT1=
EXTT2=
EXTT3=
EXTT4=
EXTT5=
EXTT6=
EXTT7=
EXTT8=
EXTT9=
PLAYORDER=
